<?xml version="1.0" standalone="no"?><!-- Generator: Gravit.io --><svg xmlns="http://www.w3.org/2000/svg" xmlns:xlink="http://www.w3.org/1999/xlink" style="isolation:isolate" viewBox="0 0 256 256" width="256" height="256"><defs><clipPath id="_clipPath_l64mIkuDqPqLmO9gAi4sUeNStsGuuTum"><rect width="256" height="256"/></clipPath></defs><g clip-path="url(#_clipPath_l64mIkuDqPqLmO9gAi4sUeNStsGuuTum)"><clipPath id="_clipPath_cYhWFpBbLUiijTAuCZsdNmbOcuNSP4C6"><rect x="0" y="0" width="256" height="256" transform="matrix(1,0,0,1,0,0)" fill="rgb(255,255,255)"/></clipPath><g clip-path="url(#_clipPath_cYhWFpBbLUiijTAuCZsdNmbOcuNSP4C6)"><g><rect x="0" y="224" width="256" height="32" transform="matrix(1,0,0,1,0,0)" fill="rgb(33,150,243)"/><path d=" M 127.555 420 C 57.113 419.766 0 362.504 0 292.008 C 0 222.376 55.72 165.657 124.97 164.059 L 127.555 420 L 127.555 420 L 127.555 420 Z " fill="rgb(76,175,80)"/><path d=" M 127.555 419.992 C 127.702 420 127.851 420 128 420 C 198.645 420 256 362.645 256 292 C 256 221.355 198.645 164 128 164 C 126.986 164 125.975 164.012 124.97 164.051 L 127.555 419.992 L 127.555 419.992 L 127.555 419.992 Z " fill="rgb(67,160,71)"/><circle vector-effect="non-scaling-stroke" cx="0" cy="0" r="1" transform="matrix(10,0,0,10,94,234)" fill="rgb(67,160,71)"/><circle vector-effect="non-scaling-stroke" cx="0" cy="0" r="1" transform="matrix(10,0,0,10,37,240)" fill="rgb(67,160,71)"/><circle vector-effect="non-scaling-stroke" cx="0" cy="0" r="1" transform="matrix(10,0,0,10,153,184)" fill="rgb(76,175,80)"/><circle vector-effect="non-scaling-stroke" cx="0" cy="0" r="1" transform="matrix(10,0,0,10,219,237)" fill="rgb(76,175,80)"/><circle vector-effect="non-scaling-stroke" cx="0" cy="0" r="1" transform="matrix(10,0,0,10,173,237)" fill="rgb(76,175,80)"/><circle vector-effect="non-scaling-stroke" cx="0" cy="0" r="1" transform="matrix(10,0,0,10,143,217)" fill="rgb(76,175,80)"/><circle vector-effect="non-scaling-stroke" cx="0" cy="0" r="1" transform="matrix(10,0,0,10,183,204)" fill="rgb(76,175,80)"/><circle vector-effect="non-scaling-stroke" cx="0" cy="0" r="1" transform="matrix(10,0,0,10,66,207)" fill="rgb(67,160,71)"/><circle vector-effect="non-scaling-stroke" cx="0" cy="0" r="1" transform="matrix(10,0,0,10,104,192)" fill="rgb(67,160,71)"/><path d=" M 156.47 164.059 L 156.47 169.667 L 124.97 169.667 L 124.97 169.667 L 124.97 141.704 L 156.47 164.059 L 156.47 164.059 L 156.47 164.059 Z " fill="rgb(189,189,189)"/><path d=" M 133 43.35 L -10 85 L -10 1.7 L 133 43.35 L 133 43.35 Z " fill-rule="evenodd" fill="rgb(255,235,59)"/><path d=" M 124.97 141.704 L 124.97 169.667 L 124.97 169.667 L 93.47 169.667 L 93.47 119.35 L 124.97 141.704 L 124.97 141.704 L 124.97 141.704 Z " fill="rgb(224,224,224)"/><path d=" M 124.97 141.704 L 124.97 110.5 L 156.47 136 L 93.47 85 L 93.47 119.35 L 124.97 141.704 L 124.97 141.704 L 124.97 141.704 Z " fill="rgb(244,67,54)"/><path d=" M 124.97 76.237 L 124.97 110.5 L 156.47 136 L 93.47 85 L 93.47 73 L 121.188 73 L 124.97 76.237 L 124.97 76.237 L 124.97 76.237 Z " fill="rgb(224,224,224)"/><path d=" M 124.97 76.237 L 124.97 73 L 121.188 73 L 124.97 76.237 L 124.97 76.237 L 124.97 76.237 Z " fill="rgb(244,67,54)"/><path d=" M 156.47 164.059 L 156.47 136 L 156.47 136 L 124.97 110.5 L 124.97 141.704 L 156.47 164.059 L 156.47 164.059 L 156.47 164.059 Z " fill="rgb(229,57,53)"/><path d=" M 156.47 103.199 L 156.47 136 L 156.47 136 L 124.97 110.5 L 124.97 76.237 L 156.47 103.199 L 156.47 103.199 L 156.47 103.199 Z " fill="rgb(189,189,189)"/><path d=" M 156.47 103.199 L 156.47 73 L 124.97 73 L 124.97 76.237 L 156.47 103.199 L 156.47 103.199 L 156.47 103.199 Z " fill="rgb(229,57,53)"/><path d=" M 110 58.285 L 166.637 58.285 L 166.637 74.618 L 83.303 74.618 L 83.303 58.285 L 110 58.285 Z " fill="rgb(66,66,66)"/><path d=" M 110 58.285 L 97.652 58.285 L 97.652 21.952 L 152.288 21.952 L 152.288 58.285 L 110 58.285 Z " fill="rgb(33,150,243)"/><rect x="109.22" y="21.952" width="4.78" height="36.333" transform="matrix(1,0,0,1,0,0)" fill="rgb(66,66,66)"/><rect x="133" y="21.952" width="4.78" height="36.333" transform="matrix(1,0,0,1,0,0)" fill="rgb(66,66,66)"/><path d=" M 124.953 2.333 L 166.603 21.952 L 83.303 21.952 L 124.953 2.333 L 124.953 2.333 Z " fill-rule="evenodd" fill="rgb(66,66,66)"/></g></g><path d=" M 26 97 L 29.067 103.617 L 36 104.639 L 30.962 109.751 L 32.18 117 L 26 113.542 L 19.82 117 L 21.038 109.751 L 16 104.639 L 22.933 103.617 L 26 97 Z " fill-rule="evenodd" fill="rgb(238,238,238)"/><path d=" M 187 141 L 190.067 147.617 L 197 148.639 L 191.962 153.751 L 193.18 161 L 187 157.542 L 180.82 161 L 182.038 153.751 L 177 148.639 L 183.933 147.617 L 187 141 Z " fill-rule="evenodd" fill="rgb(238,238,238)"/><path d=" M 235 171 L 238.067 177.617 L 245 178.639 L 239.962 183.751 L 241.18 191 L 235 187.542 L 228.82 191 L 230.038 183.751 L 225 178.639 L 231.933 177.617 L 235 171 Z " fill-rule="evenodd" fill="rgb(238,238,238)"/><path d=" M 215 20 L 218.067 26.617 L 225 27.639 L 219.962 32.751 L 221.18 40 L 215 36.542 L 208.82 40 L 210.038 32.751 L 205 27.639 L 211.933 26.617 L 215 20 Z " fill-rule="evenodd" fill="rgb(238,238,238)"/><path d=" M 195 72 L 198.067 78.617 L 205 79.639 L 199.962 84.751 L 201.18 92 L 195 88.542 L 188.82 92 L 190.038 84.751 L 185 79.639 L 191.933 78.617 L 195 72 Z " fill-rule="evenodd" fill="rgb(238,238,238)"/><path d=" M 229.962 108 L 233.029 114.617 L 239.962 115.639 L 234.925 120.751 L 236.143 128 L 229.962 124.542 L 223.782 128 L 225 120.751 L 219.962 115.639 L 226.896 114.617 L 229.962 108 Z " fill-rule="evenodd" fill="rgb(238,238,238)"/><path d=" M 65 131 L 68.067 137.617 L 75 138.639 L 69.962 143.751 L 71.18 151 L 65 147.542 L 58.82 151 L 60.038 143.751 L 55 138.639 L 61.933 137.617 L 65 131 Z " fill-rule="evenodd" fill="rgb(238,238,238)"/><path d=" M 75 0 L 78.067 6.617 L 85 7.639 L 79.962 12.751 L 81.18 20 L 75 16.542 L 68.82 20 L 70.038 12.751 L 65 7.639 L 71.933 6.617 L 75 0 Z " fill-rule="evenodd" fill="rgb(238,238,238)"/></g></svg>